<svg width="36" height="36" viewBox="0 0 36 36" fill="none" xmlns="http://www.w3.org/2000/svg">
<g clip-path="url(#clip0_79255_35)">
<path d="M17.8999 25C21.7999 25 24.8999 21.9 24.8999 18C24.8999 14.1 21.7999 11 17.8999 11C13.9999 11 10.8999 14.1 10.8999 18C10.8999 21.9 13.9999 25 17.8999 25ZM17.8999 13C20.6999 13 22.8999 15.2 22.8999 18C22.8999 20.8 20.6999 23 17.8999 23C15.0999 23 12.8999 20.8 12.8999 18C12.8999 15.2 15.0999 13 17.8999 13Z" fill="white"/>
<path d="M3.2 21.3L6 22.2L6.6 23.7L5.2 26.3C4.9 26.9 5 27.7 5.5 28.2L7.9 30.6C8.4 31.1 9.2 31.2 9.8 30.9L12.4 29.5L13.9 30.1L14.8 32.9C15 33.5 15.6 34 16.3 34H19.7C20.4 34 21 33.5 21.1 32.8L22 30C22.6 29.9 23.1 29.7 23.6 29.4L26.2 30.8C26.8 31.1 27.6 31 28.1 30.5L30.5 28.1C31 27.6 31.1 26.8 30.8 26.2L29.5 23.7C29.7 23.2 29.9 22.6 30.1 22.1L32.9 21.2C33.5 21 34 20.4 34 19.7V16.3C34 15.6 33.5 15 32.8 14.8L30 13.9L29.4 12.4L30.8 9.8C31.1 9.2 31 8.4 30.5 7.9L28.1 5.5C27.6 5 26.8 4.9 26.2 5.2L23.6 6.6L22.1 6L21.2 3.1C21 2.5 20.4 2 19.7 2L16.3 2C15.6 2 15 2.5 14.8 3.1L13.9 6L12.4 6.6L9.8 5.2C9.2 4.9 8.4 5 7.9 5.5L5.5 7.9C5 8.4 4.9 9.2 5.2 9.8L6.6 12.4L6 13.9L3.1 14.8C2.5 15 2 15.6 2 16.3V19.7C2 20.4 2.5 21.1 3.2 21.3V21.3ZM4 16.6L7.6 15.5L7.7 15L8.6 12.9L8.9 12.4L7.1 9.1L9.1 7.1L12.4 8.9L12.9 8.6C13.6 8.2 14.3 7.9 15 7.7L15.5 7.6L16.6 4H19.4L20.5 7.6L21 7.7L23.1 8.6L23.6 8.9L26.9 7.1L28.9 9.1L27.1 12.4L27.4 12.9C27.8 13.6 28.1 14.3 28.3 15L28.4 15.5L32 16.6L32 19.4L28.6 20.4L28.4 20.9C28.2 21.7 27.9 22.4 27.5 23.1L27.2 23.6L28.9 26.9L26.9 28.9L23.7 27.1L23.2 27.4C22.5 27.8 21.8 28.1 21 28.3L20.5 28.5L19.4 32H16.6L15.5 28.5L15 28.3C14.3 28.1 13.6 27.8 12.9 27.4L12.4 27.1L9.1 28.9L7.1 26.9L8.9 23.6L8.6 23.1C8.2 22.4 7.9 21.7 7.7 21L7.6 20.5L4 19.4V16.6V16.6Z" fill="white"/>
</g>
<defs>
<clipPath id="clip0_79255_35">
<rect width="36" height="36" fill="white"/>
</clipPath>
</defs>
</svg>
